# xmcd
#
# Track frame offsets:
#	150
#	13193
#	29195
#	49773
#	65780
#	87338
#	102405
#	128418
#	150155
#
# Disc length: 2236 seconds
#
# Revision: 1
# Processed by: cddbd v1.4PL0 Copyright (c) Steve Scherf et al.
# Submitted via: audiograbber 1.80
#
DISCID=7208ba09
DTITLE=The Coolers - Let's Try And Be Friends
DYEAR=1900
DGENRE=
TTITLE0=Love Man
TTITLE1=Until Then
TTITLE2=Uptown Lady
TTITLE3=Love-A-Holic
TTITLE4=Every Little Bit Hurts
TTITLE5=Die Hard Man
TTITLE6=It's Gonna Rain Again
TTITLE7=The Last Thing On My Mind
TTITLE8=Take Me To Your Ocean
EXTD=
EXTT0=
EXTT1=
EXTT2=
EXTT3=
EXTT4=
EXTT5=
EXTT6=
EXTT7=
EXTT8=
PLAYORDER=
